<svg xmlns="http://www.w3.org/2000/svg" width="141.5" height="141.5" viewBox="0 0 141.5 141.5">
  <path id="Icon_awesome-facebook-square" data-name="Icon awesome-facebook-square" d="M126.339,2.25H15.161A15.161,15.161,0,0,0,0,17.411V128.589A15.161,15.161,0,0,0,15.161,143.75h43.35V95.643h-19.9V73h19.9V55.742c0-19.63,11.686-30.473,29.586-30.473A120.548,120.548,0,0,1,105.632,26.8V46.064H95.756c-9.731,0-12.767,6.039-12.767,12.233V73h21.724l-3.474,22.643H82.989V143.75h43.35A15.161,15.161,0,0,0,141.5,128.589V17.411A15.161,15.161,0,0,0,126.339,2.25Z" transform="translate(0 -2.25)" fill="#fff"/>
</svg>
