<svg xmlns="http://www.w3.org/2000/svg" width="144.24" height="144.208" viewBox="0 0 144.24 144.208">
  <path id="Icon_awesome-instagram" data-name="Icon awesome-instagram" d="M72.131,37.368A36.973,36.973,0,1,0,109.1,74.342,36.914,36.914,0,0,0,72.131,37.368Zm0,61.01A24.037,24.037,0,1,1,96.168,74.342,24.081,24.081,0,0,1,72.131,98.379ZM119.24,35.856a8.624,8.624,0,1,1-8.624-8.624A8.6,8.6,0,0,1,119.24,35.856Zm24.488,8.753c-.547-11.552-3.186-21.785-11.649-30.216-8.431-8.431-18.663-11.069-30.216-11.649-11.906-.676-47.592-.676-59.5,0C30.846,3.292,20.613,5.93,12.15,14.361S1.081,33.024.5,44.576c-.676,11.906-.676,47.592,0,59.5.547,11.552,3.186,21.785,11.649,30.216s18.663,11.069,30.216,11.649c11.906.676,47.592.676,59.5,0,11.552-.547,21.785-3.186,30.216-11.649,8.431-8.431,11.069-18.663,11.649-30.216.676-11.906.676-47.56,0-59.466Zm-15.381,72.241a24.336,24.336,0,0,1-13.708,13.708c-9.493,3.765-32.018,2.9-42.508,2.9s-33.047.837-42.508-2.9a24.336,24.336,0,0,1-13.708-13.708c-3.765-9.493-2.9-32.018-2.9-42.508s-.837-33.047,2.9-42.508A24.336,24.336,0,0,1,29.623,18.126c9.493-3.765,32.018-2.9,42.508-2.9s33.047-.837,42.508,2.9a24.336,24.336,0,0,1,13.708,13.708c3.765,9.493,2.9,32.018,2.9,42.508S132.111,107.389,128.346,116.849Z" transform="translate(0.005 -2.238)" fill="#fff"/>
</svg>
