<svg xmlns="http://www.w3.org/2000/svg" width="279" height="62" viewBox="0 0 279 62">
  <path id="a" d="M83.46,25.83l4.378-14.1h5.738l4.34,14.1,4.893-14.1h5.959L100.16,36.243H96.078L90.67,19.18,85.3,36.243H81.217L72.61,11.728h5.959Zm28.287-14.1h5.518V36.243h-5.518Zm11.587,0h5.517V21.81l9.306-10.083h6.8l-9.821,10.85c.846,1.17,2.428,3.362,4.708,6.54s3.973,5.554,5.113,7.125h-6.437l-7.246-9.682-2.464,2.74v6.942H123.3V11.728h.037Zm25.049,0H153.9V36.243h-5.518Zm33.693,9.1-6.657,13.408h-3.274l-6.621-13.408V36.243h-5.517V11.728h7.467l6.363,13.481,6.4-13.481h7.431V36.243H182.15V20.825h-.074Zm29.39-9.1v4.859H199.181v5.078h11.035v4.677H199.181V31.42h12.69v4.823H193.7V11.728h17.766Zm24.13,3.215c2.354,2.155,3.531,5.115,3.531,8.914s-1.14,6.832-3.458,9.061c-2.28,2.229-5.811,3.325-10.52,3.325h-8.423V11.728h8.718c4.451,0,7.8,1.1,10.152,3.215ZM231.587,29.52A7.176,7.176,0,0,0,233.61,24a7.265,7.265,0,0,0-2.023-5.553c-1.361-1.315-3.421-1.936-6.217-1.936h-3.09V31.42h3.495A8.176,8.176,0,0,0,231.587,29.52Zm12.322-17.792h5.517V36.243h-5.517V11.728Zm29.169,24.515-2.281-5.3H260.461l-2.28,5.3h-5.849L263,11.728h5.334L279,36.243Zm-7.467-17.208-3.09,7.124h6.18ZM82.651,47.386v2.96h4.782v1.68H82.652v4.42h-1.84V45.706h7.21v1.68h-5.37Zm25.822,7.526a6,6,0,0,1-8.092,0,5.532,5.532,0,0,1,0-7.892,6,6,0,0,1,8.092,0,5.529,5.529,0,0,1,0,7.892Zm-1.324-6.686a3.839,3.839,0,0,0-5.444,0,3.825,3.825,0,0,0-1.1,2.74,3.705,3.705,0,0,0,1.1,2.74,3.765,3.765,0,0,0,2.722,1.133,3.62,3.62,0,0,0,2.722-1.133,3.822,3.822,0,0,0,1.1-2.74A3.7,3.7,0,0,0,107.149,48.226Zm16.957,5.736a2.5,2.5,0,0,0,2.023.877,2.549,2.549,0,0,0,2.023-.877,3.372,3.372,0,0,0,.736-2.338V45.669h1.839V51.7a4.849,4.849,0,0,1-1.287,3.58,4.935,4.935,0,0,1-6.548,0A4.794,4.794,0,0,1,121.6,51.7v-6.03h1.839v5.956a3.182,3.182,0,0,0,.662,2.338Zm26.815-8.293h1.839V56.41h-1.986l-6.106-7.818V56.41h-1.839V45.67h1.839l6.29,8v-8h-.037Zm22.254,1.425A5.019,5.019,0,0,1,174.72,51a5.214,5.214,0,0,1-1.508,3.946,6.348,6.348,0,0,1-4.635,1.461h-3.568V45.67h3.715a6.377,6.377,0,0,1,4.451,1.425Zm-.258,3.945c0-2.447-1.434-3.69-4.23-3.69h-1.839v7.344h2.023a4.375,4.375,0,0,0,3.017-.913,3.6,3.6,0,0,0,1.029-2.74Zm14.971,2.923-1.067,2.448h-1.949l4.745-10.741h1.95l4.745,10.741h-1.95l-1.067-2.448h-5.407Zm4.672-1.68-1.95-4.421-1.949,4.42h3.9Zm17.766-4.933V56.41h-1.839V47.35h-3.274V45.705H213.6v1.644h-3.274Zm14.529-1.68h1.839V56.41h-1.839V45.67Zm23.1,9.243a6,6,0,0,1-8.092,0,5.532,5.532,0,0,1,0-7.892,6,6,0,0,1,8.092,0,5.532,5.532,0,0,1,0,7.892Zm-1.324-6.686a3.839,3.839,0,0,0-5.444,0,3.822,3.822,0,0,0-1.1,2.74,3.7,3.7,0,0,0,1.1,2.74,3.763,3.763,0,0,0,2.722,1.133,3.622,3.622,0,0,0,2.722-1.133,3.82,3.82,0,0,0,1.1-2.74A3.7,3.7,0,0,0,246.631,48.226Zm22.621-2.557h1.84V56.41h-1.987L263,48.592V56.41H261.16V45.67H263l6.29,8-.037-8ZM33.84,49.943a18.97,18.97,0,0,0,9.638-33.356L33.84,26.159V49.943Zm-5.407,0V26.16L18.8,16.551a19,19,0,0,0,9.637,33.393ZM47.781,14.578a23.26,23.26,0,0,1,0,33.027,23.646,23.646,0,0,1-33.252,0,23.219,23.219,0,0,1-.036-33.028c.367-.365.772-.73,1.177-1.1L10.3,8.147c-.4.366-.773.731-1.178,1.1A30.894,30.894,0,0,0,0,31.091a29.949,29.949,0,0,0,2.464,12.02,31.461,31.461,0,0,0,6.658,9.828,30.488,30.488,0,0,0,9.9,6.613A31.132,31.132,0,0,0,31.119,62a30.481,30.481,0,0,0,12.1-2.448,31.7,31.7,0,0,0,9.9-6.613,30.894,30.894,0,0,0,9.122-21.848,29.949,29.949,0,0,0-2.464-12.02,31.473,31.473,0,0,0-6.658-9.828c-.368-.365-.773-.73-1.177-1.1L46.6,13.481c.4.33.773.695,1.177,1.1ZM31.12,0a9.646,9.646,0,1,1-9.711,9.645A9.668,9.668,0,0,1,31.12,0Z"/>
</svg>
