<svg xmlns="http://www.w3.org/2000/svg" width="131.202" height="96.88" viewBox="0 0 131.202 96.88">
  <path id="Icon_ionic-logo-youtube" data-name="Icon ionic-logo-youtube" d="M130.35,25.893c0-11.352-8.483-20.485-18.965-20.485C97.186,4.752,82.706,4.5,67.918,4.5H63.3c-14.762,0-29.268.252-43.467.908C9.381,5.408.9,14.591.9,25.944.257,34.925-.024,43.906,0,52.887Q-.037,66.358.873,79.855c0,11.352,8.483,20.561,18.94,20.561,14.916.681,30.216.984,45.773.959q23.374.076,45.773-.959c10.482,0,18.965-9.208,18.965-20.561.615-9.006.9-17.987.871-26.994Q131.272,39.39,130.35,25.893Zm-77.3,51.742V28.063L90.215,52.836Z" transform="translate(0 -4.5)" fill="#fff"/>
</svg>
